HIERARCHY
ROOT Hips
{
    OFFSET 12.42338752746582 83.18376159667969 -17.281179428100586
    CHANNELS 6 Xposition Yposition Zposition Zrotation Xrotation Yrotation
    JOINT RightUpLeg
    {
        OFFSET -12.42338752746582 0.0 0.0
        CHANNELS 3 Zrotation Xrotation Yrotation
        JOINT RightLeg
        {
            OFFSET 0.0 -39.980812072753906 0.0
            CHANNELS 3 Zrotation Xrotation Yrotation
            JOINT RightFoot
            {
                OFFSET 0.0 -43.20294952392578 0.0
                CHANNELS 3 Zrotation Xrotation Yrotation
                End Site
                {
                    OFFSET 0.0 0.0 17.281179428100586
                }
            }
        }
    }
    JOINT LeftUpLeg
    {
        OFFSET 12.42338752746582 0.0 0.0
        CHANNELS 3 Zrotation Xrotation Yrotation
        JOINT LeftLeg
        {
            OFFSET 0.0 -39.980812072753906 0.0
            CHANNELS 3 Zrotation Xrotation Yrotation
            JOINT LeftFoot
            {
                OFFSET 0.0 -43.20294952392578 0.0
                CHANNELS 3 Zrotation Xrotation Yrotation
                End Site
                {
                    OFFSET 0.0 0.0 17.281179428100586
                }
            }
        }
    }
    JOINT Spine
    {
        OFFSET 0.0 21.88168716430664 0.0
        CHANNELS 3 Zrotation Xrotation Yrotation
        JOINT Spine3
        {
            OFFSET 0.0 22.520803451538086 0.0
            CHANNELS 3 Zrotation Xrotation Yrotation
            JOINT Neck
            {
                OFFSET 0.0 9.148499488830566 0.0
                CHANNELS 3 Zrotation Xrotation Yrotation
                End Site
                {
                    OFFSET 0.0 3.65939998626709 0.0
                }
            }
            JOINT LeftArm
            {
                OFFSET 12.533914566040039 0.0 0.0
                CHANNELS 3 Zrotation Xrotation Yrotation
                JOINT LeftForeArm
                {
                    OFFSET 22.826427459716797 0.0 0.0
                    CHANNELS 3 Zrotation Xrotation Yrotation
                    JOINT LeftHand
                    {
                        OFFSET 17.572765350341797 0.0 0.0
                        CHANNELS 3 Zrotation Xrotation Yrotation
                        End Site
                        {
                            OFFSET 7.029106140136719 0.0 0.0
                        }
                    }
                }
            }
            JOINT RightArm
            {
                OFFSET -12.533914566040039 0.0 0.0
                CHANNELS 3 Zrotation Xrotation Yrotation
                JOINT RightForeArm
                {
                    OFFSET -22.826427459716797 0.0 0.0
                    CHANNELS 3 Zrotation Xrotation Yrotation
                    JOINT RightHand
                    {
                        OFFSET -17.572765350341797 0.0 0.0
                        CHANNELS 3 Zrotation Xrotation Yrotation
                        End Site
                        {
                            OFFSET -7.029106140136719 0.0 0.0
                        }
                    }
                }
            }
        }
    }
}
MOTION
Frames: 11
Frame Time: 0.03333333333333333
0.0002553646045271307 60.709678649902344 -0.0007385730277746916 5.0990180167139885 0.7236792498745869 70.51545543882631 8.196578172322976 -64.8498536700217 6.4191830282102105 123.07030438608638 74.86201257437129 -127.04431746465477 -5.168401357378216e-15 2.7829853462805776e-15 7.951386703658793e-15 1.8947045844233352 -63.58481894696837 0.7266490591086638 -178.52148232112575 78.27658780036064 178.2000259028426 1.5902773407317582e-15 4.770832022195275e-15 3.975693351829396e-15 7.442082478751549 15.4564823130359 -1.697319963923954 5.997141555413424e-07 -2.0120669444638942e-07 5.114056014619579 -7.576188459843948 -1.4355358122273238 178.51505512289052 102.23043243855943 -14.074873941749715 -173.90318743758255 3.4335798647258867e-06 -6.860481437002509e-06 36.48857405500046 0.0 0.0 6.361109362927033e-15 -123.31763386333024 -8.622447008124958 162.6069566088302 -1.9845402091903616e-06 -4.444768473763972e-07 -53.438971291334575 3.1805546814635168e-15 6.3611093629270335e-15 -1.7655625192200634e-31
0.00021668315457645804 60.709678649902344 -0.0007429940742440522 5.2977608660632125 0.7567352408005827 70.6381098293915 8.438780468361871 -64.7794324597545 6.8400536710469275 123.357002879234 74.3765591274989 -127.60628041315289 -7.951386703658792e-16 -3.975693351829396e-16 2.5842006786891076e-15 1.4119889221435737 -63.77672354951355 0.49708719333504536 178.73666239588803 77.47541754720268 -179.0047293356088 3.1805546814635168e-15 4.770832022195275e-15 3.975693351829396e-15 7.295076107846844 15.46509320835266 -1.7194411877322695 -1.3267570093065367e-06 -7.597457702492923e-07 5.289233725699 -8.251369415303344 -1.1154858990859369 177.49682019031405 102.5776919530374 -13.61611189941309 -174.55160299294897 9.09537486468567e-07 3.0981256674366536e-06 37.698535557052075 0.0 -1.590277340731758e-15 0.0 -122.87132083291687 -8.564375722522884 162.7129381564892 -1.454926033751149e-06 -8.971852346487537e-07 -53.129941259776984 3.1805546814635168e-15 0.0 0.0
0.00017946198931895196 60.709781646728516 -0.0007763648754917085 5.20789262548372 0.33116898184069893 70.16396700375087 9.670588255259586 -65.26705511237458 7.511039254215687 126.61102017312683 74.1057944480004 -131.16133655626032 -2.3854160110976368e-15 -3.180554681463516e-15 3.578124016646456e-15 2.51179992590125 -63.804357975500636 1.0136287667484014 178.3074988341361 77.55384434986289 -178.83329326717364 3.180554681463516e-15 3.1805546814635168e-15 9.541664044390549e-15 8.074529883810238 15.43888492246627 -1.78525464418968 1.3322283800956014e-07 2.5999813727555576e-08 5.5241561993638175 -10.572129059324658 -0.057130076387595805 177.80010209362274 102.0620386479935 -13.917096484758332 -175.17280310709077 5.132437251209022e-06 4.203311146139545e-06 38.21801294254789 0.0 0.0 3.1805546814635168e-15 -122.19513151604252 -8.103809119434759 162.61190399338975 -6.20876115856142e-06 -3.0837467109019186e-06 -52.855841129373026 0.0 0.0 0.0
0.00033519635326229036 60.70976257324219 -0.0007445247611030936 5.014005352825797 0.38903772996628566 70.41900474577874 7.940312025956816 -65.37088738423472 5.9579429446079315 128.83327320836662 73.91537359646709 -132.69752997150397 -3.1805546814635164e-15 -9.931289170612858e-32 3.578124016646456e-15 2.4865169346017284 -63.53522569434547 1.0070342499161982 -176.97138929485942 78.65367471658115 176.54055395787648 -8.827812596100317e-32 -3.1805546814635164e-15 -3.1805546814635164e-15 7.804498142620414 15.439762868810753 -1.718032911084264 6.944289887322636e-07 3.775092405665306e-07 4.985459110892859 -9.231585115860893 -0.8079180834875673 177.8985426113113 101.8849650643918 -12.80564645666345 -174.4875625298067 2.82097415592768e-06 -1.0921852151260044e-06 37.35649820476346 0.0 0.0 3.1805546814635168e-15 -123.60910548461673 -9.135017550229378 161.9988582880411 5.737808437502669e-07 1.2711441655015812e-06 -52.64054482050818 -3.1805546814635164e-15 -8.827812596100317e-32 3.1805546814635164e-15
0.0003727898292709142 60.70979309082031 -0.0007518141646869481 4.579117788268301 0.5735152913887525 71.12177442572364 6.721791344200772 -65.38399516162731 5.400382247395423 124.93350329338327 73.49020319723029 -128.57437311910192 -2.3854160110976376e-15 5.793252016190833e-32 -2.782985346280577e-15 1.79416453773595 -64.14354561033534 0.9345721539726124 -179.26436107351762 78.4217837853125 178.8372594816217 0.0 0.0 -7.951386703658792e-15 7.415987682679383 14.919534896955401 -1.718162816290418 5.665509318545725e-07 2.4073128575081997e-07 4.148814000572169 -7.310736788245669 -0.7002832968681744 178.3755812628515 102.07902355012821 -10.821117801637422 -173.72039669303962 -1.366058453568624e-06 -1.3386850154853399e-06 37.40889456014519 4.770832022195277e-15 -1.3241718894150476e-31 -3.1805546814635176e-15 -124.4545093366131 -9.111847720666441 162.0128200978575 -5.1682486920271245e-06 -2.9855703538343874e-06 -52.900638299179825 -3.1805546814635168e-15 -6.361109362927033e-15 -6.361109362927033e-15
0.0003189039998687804 60.709739685058594 -0.0007761404267512262 4.916998860904456 0.17048059797676401 71.02052835909781 7.733930980165917 -64.20039698728559 6.258011469537124 125.74927824665762 73.95909759510656 -129.88251242032268 1.5902773407317582e-15 3.975693351829396e-16 1.5902773407317582e-15 0.43032015918624594 -63.6865055329485 -0.2959686545440615 -178.390540507086 77.10455284210505 178.57522297939187 0.0 4.770832022195275e-15 0.0 7.446590570239098 15.827736304444137 -1.827295827363674 -4.607170663135328e-07 -6.057713925451748e-07 4.183259203939383 -6.518472810515623 -1.2339579326454244 178.7932499639926 102.63519510420163 -9.280487806322997 -171.9430466581945 -2.3422951269103333e-06 -1.1662105360532323e-06 34.39782782912734 -6.361109362927033e-15 -7.951386703658792e-15 6.361109362927033e-15 -125.68340346301649 -9.638935058320905 161.34260098068958 -5.248946745728785e-06 -1.1013595311364864e-06 -52.83078727440937 3.1805546814635168e-15 6.3611093629270335e-15 -3.1805546814635168e-15
0.00032969587482511997 60.709774017333984 -0.0007759954314678907 4.373331183671521 0.05374773113085157 70.79787748856891 7.810496962742775 -65.20860624727716 6.099429741959307 126.76683794517861 73.83472406757798 -130.71687633182302 7.95138670365879e-16 -5.103579157120495e-32 -7.35503270088438e-15 1.0075005953897036 -64.20652673688264 -0.05454364235266183 -176.73869647212874 77.10117756580286 176.8478506821268 4.770832022195275e-15 -3.1805546814635168e-15 -7.156248033292914e-15 7.868376816137189 15.577424820679987 -1.8301711409014918 7.156217503642373e-07 9.174543567438377e-07 4.4733419744855984 -6.62026137017889 -1.4680642349864765 179.6480281956931 102.11619138090495 -10.077625012086948 -171.70564414760491 3.3707097097679503e-06 3.0129122283799236e-07 33.551688895746665 -1.7655625192200634e-31 -6.3611093629270335e-15 -3.1805546814635168e-15 -125.60464121476545 -9.209260560531549 161.46198680111956 -1.5301103156636548e-06 4.0018053538474265e-07 -52.872244278917215 0.0 0.0 -3.1805546814635168e-15
0.0003353850042913109 60.70969772338867 -0.0007113074534572661 4.294162397077791 0.43201353967905404 70.62363544097218 8.834040827969563 -65.6067463842967 6.91340795582485 128.1042719438644 73.82788998004193 -132.37939694307136 -3.975693351829396e-15 -2.827658722188383e-31 8.150171371250262e-15 1.1921200315303797 -64.59943573764369 -0.027083934625904353 -175.86151209008216 77.16470574660003 175.97846401427026 -1.7655625192200634e-31 -3.1805546814635168e-15 -6.3611093629270335e-15 6.734681367714989 14.653976055970706 -1.3949861324681434 -3.9735172015674444e-07 -8.652610910031972e-07 4.186536843792179 -5.876787735746087 -0.2888762934556535 179.7339547662566 103.17008473619448 -11.233803483621227 -172.34593846276132 -7.613741057381985e-07 4.552558217085277e-06 34.68303348630458 1.5902773407317584e-15 4.4139062980501586e-32 3.1805546814635168e-15 -125.37499053833541 -10.34570698306719 161.6921513165518 9.339047753565905e-07 -1.4235976174074385e-06 -52.777176625386 0.0 0.0 0.0
0.0002917638048529625 60.70969772338867 -0.0007076732581481338 4.707432884006613 0.5459703225024839 71.35987261455081 8.848686439464164 -65.09661608016982 6.8936146947070585 127.91701707286536 73.41467310445293 -132.31699005829736 -2.3854160110976376e-15 -3.578124016646457e-15 4.174478019420866e-15 1.4449452022153941 -63.93797601564355 0.1954227358812128 -177.42519448283042 77.50906118642443 177.39402170581863 -1.5902773407317584e-15 3.1805546814635164e-15 4.770832022195274e-15 6.267045065844504 14.800579942059917 -1.286799551579493 1.0307499924877567e-06 9.014677665623128e-07 3.66393664870945 -5.301148522597071 0.05470980392493229 179.83299315490405 104.19781319996852 -11.929424382416759 -171.7213155436208 -1.6580043686122518e-07 -1.5729545840145095e-07 36.56458744014667 -1.5902773407317584e-15 0.0 0.0 -126.62256617757853 -11.53558906776719 161.92672348188034 9.938953607470596e-07 9.833736184713743e-07 -53.11014248911229 -3.1805546814635164e-15 -6.361109362927033e-15 -1.7655625192200634e-31
0.00030660213087685406 60.709739685058594 -0.0007133565377444029 5.0621230569613 0.5569565192665582 71.83805236705255 7.938986025141751 -64.35386002966179 6.248464591650643 126.3975368921315 73.56196537821734 -130.56750895521117 -3.975693351829396e-15 -3.1805546814635168e-15 1.987846675914697e-16 1.3881376535466015 -63.45536395068406 0.36117071407908147 -178.37371625165042 77.18261172973405 178.23980684835632 0.0 0.0 -1.5902773407317584e-15 6.568446644262322 15.172005815975254 -1.4618538188220507 1.3556131880341278e-07 3.138610066740883e-07 3.1464520143605266 -5.800360716991914 -0.16348910433949024 -179.95030989706956 104.31708375656092 -12.539245891308157 -170.96543064040145 2.741575904510909e-06 -2.4556111410811105e-06 37.25539138385652 6.361109362927033e-15 -1.7655625192200634e-31 -3.1805546814635164e-15 -126.26673490622505 -10.031258199754724 162.03031892061864 4.037065800031658e-06 1.888213374250368e-06 -53.154720944515276 -3.1805546814635168e-15 -6.3611093629270335e-15 3.1805546814635168e-15
0.0003360547998454422 60.709739685058594 -0.0006813282961957157 5.12117301642528 0.5080918544347135 71.78173229690775 7.884012388605118 -64.38375658170408 6.036608086187167 127.17162386665244 73.46833852535792 -131.25538198832996 7.951386703658791e-16 3.975693351829395e-16 -6.559894030518502e-15 0.8497490409710973 -63.5176580348029 -0.2824616012428692 -177.83692351220444 76.97448605288531 178.0313588932789 1.5902773407317584e-15 1.5902773407317584e-15 -3.1805546814635168e-15 6.447226178965202 15.290948126481803 -1.3926715855727922 -2.604836464540919e-07 -2.4202138004273575e-07 3.148859701435327 -5.684277108913081 -0.0931013937780676 -179.69454821698858 104.78332576213947 -12.844968324213339 -170.27541866140908 9.982700666712934e-07 3.5317900944306973e-06 36.772014390496686 -7.951386703658792e-15 0.0 0.0 -126.13171684260489 -9.35390385220242 162.0880831461112 -4.539259178148565e-07 -1.1366436141911439e-06 -52.706841670306545 1.7655625192200634e-31 6.3611093629270335e-15 -3.1805546814635168e-15
